<svg width="62" height="55" viewBox="0 0 62 55" fill="none" xmlns="http://www.w3.org/2000/svg">
<g filter="url(#filter0_d_1575_17456)">
<g filter="url(#filter1_dd_1575_17456)">
<path d="M38.5723 1.04118C32.1188 1.06022 25.6773 1.0524 19.2479 1.01773C19.2289 1.0176 19.2101 1.0222 19.1935 1.03108C19.1768 1.03997 19.1629 1.05283 19.1529 1.06843C19.143 1.08403 19.1374 1.10183 19.1368 1.12011C19.1361 1.13839 19.1404 1.15651 19.1492 1.17274C19.4018 1.63845 19.6658 2.06744 19.9411 2.45973C20.0253 2.57938 20.1322 2.64499 20.2617 2.65655C20.9888 2.71977 21.8572 2.62799 22.4899 2.63207C27.804 2.66403 33.9698 2.66165 40.9873 2.62493C41.2835 2.62289 41.4735 2.60556 41.6603 2.35978C41.9272 2.00829 42.1649 1.61227 42.3737 1.17172C42.414 1.08741 42.3861 1.0422 42.2898 1.03608C41.0468 0.953481 39.4237 1.03812 38.5723 1.04118Z" fill="#89D2D2" stroke="#C4E9E9" stroke-width="0.304709"/>
<path d="M52.5986 20.7356C52.6085 20.752 52.6228 20.7656 52.6399 20.7749C52.6571 20.7842 52.6766 20.789 52.6963 20.7886L54.4288 20.759C54.4479 20.7587 54.4667 20.7535 54.4832 20.744C54.4997 20.7346 54.5133 20.7212 54.5227 20.7051C54.5322 20.689 54.5371 20.6709 54.537 20.6525C54.5369 20.634 54.5318 20.6159 54.5222 20.5999L42.9577 1.35836C42.9478 1.34193 42.9336 1.32833 42.9165 1.31897C42.8993 1.30962 42.8799 1.30485 42.8601 1.30516C42.8404 1.30547 42.8211 1.31086 42.8043 1.32075C42.7875 1.33064 42.7737 1.34469 42.7645 1.36142L41.9269 2.8646C41.9181 2.88053 41.9137 2.89835 41.9141 2.91637C41.9145 2.93439 41.9196 2.95202 41.929 2.9676L52.5986 20.7356Z" fill="#89D2D2" stroke="#DBF1F5" stroke-width="0.304709"/>
<path d="M8.96589 20.7101L19.6238 2.96862C19.6317 2.95545 19.6359 2.94013 19.6361 2.92397C19.6363 2.90781 19.6324 2.89129 19.6249 2.87582C19.3765 2.36932 19.0835 1.88763 18.7459 1.43076C18.6546 1.30703 18.5725 1.31281 18.4996 1.4481C18.2767 1.86146 18.0322 2.29045 17.7661 2.73509C14.217 8.65197 10.6456 14.5943 7.05192 20.5622C6.99742 20.6533 7.02113 20.7186 7.12304 20.758C7.19806 20.7866 7.30846 20.7995 7.45424 20.7968C7.93052 20.7866 8.40964 20.7719 8.89158 20.7529C8.90686 20.7523 8.92167 20.748 8.93466 20.7405C8.94764 20.733 8.95838 20.7226 8.96589 20.7101Z" fill="#89D2D2" stroke="#DBF1F5" stroke-width="0.304709"/>
<path d="M14.76 20.6897L22.539 7.73619C22.5467 7.7235 22.5508 7.709 22.5508 7.69414C22.5508 7.67928 22.5467 7.66459 22.539 7.65155L21.6133 6.13918C21.6014 6.11972 21.5843 6.1037 21.5638 6.0928C21.5432 6.08191 21.5199 6.07654 21.4965 6.07728C21.473 6.07801 21.4502 6.08481 21.4304 6.09696C21.4106 6.10911 21.3946 6.12616 21.384 6.14632C21.1158 6.6603 20.8395 7.15219 20.555 7.62197C18.0405 11.7726 15.5331 15.9272 13.0328 20.086C12.9125 20.2859 12.8106 20.4935 12.7271 20.7091C12.7232 20.7191 12.7218 20.7299 12.7232 20.7406C12.7245 20.7513 12.7286 20.7615 12.7349 20.7703C12.7413 20.7791 12.7498 20.7863 12.7597 20.7913C12.7697 20.7963 12.7807 20.7988 12.7919 20.7988L14.5997 20.7794C14.6324 20.7791 14.6644 20.7706 14.6925 20.7549C14.7206 20.7391 14.7439 20.7167 14.76 20.6897Z" fill="#89D2D2" stroke="#C4E9E9" stroke-width="0.304709"/>
<path d="M46.816 20.7243C46.8272 20.7429 46.8433 20.7583 46.8627 20.769C46.8821 20.7797 46.904 20.7854 46.9264 20.7855L48.7278 20.7967C48.7505 20.7968 48.7727 20.7912 48.7924 20.7803C48.812 20.7695 48.8283 20.7539 48.8396 20.735C48.8509 20.7162 48.8568 20.6948 48.8568 20.673C48.8567 20.6513 48.8507 20.6299 48.8393 20.6111L40.141 6.1514C40.1297 6.13254 40.1135 6.11686 40.0939 6.10597C40.0743 6.09507 40.0521 6.08932 40.0295 6.08932C40.0069 6.08932 39.9846 6.09507 39.9651 6.10597C39.9455 6.11686 39.9293 6.13254 39.918 6.1514L39.0306 7.64031C39.0195 7.65894 39.0137 7.68003 39.0137 7.70149C39.0137 7.72295 39.0195 7.74404 39.0306 7.76268L46.816 20.7243Z" fill="#89D2D2" stroke="#C4E9E9" stroke-width="0.304709"/>
<path d="M24.8971 11.5941C24.7761 11.3643 24.637 11.1355 24.4799 10.9078C24.4736 10.8985 24.465 10.8908 24.4549 10.8855C24.4447 10.8801 24.4334 10.8773 24.4218 10.8772C24.4103 10.8771 24.3988 10.8797 24.3886 10.8849C24.3784 10.89 24.3696 10.8976 24.3631 10.9068C24.0978 11.2909 23.8402 11.6927 23.5903 12.1122C22.0412 14.712 20.4843 17.3077 18.9195 19.8994C18.7122 20.242 18.5621 20.516 18.4694 20.7213C18.4658 20.7292 18.4643 20.7379 18.465 20.7465C18.4658 20.7552 18.4687 20.7635 18.4736 20.7709C18.4785 20.7782 18.4853 20.7843 18.4932 20.7886C18.5012 20.793 18.5102 20.7954 18.5193 20.7958C19.1149 20.8039 19.8813 20.8692 20.4513 20.7193C20.485 20.7107 20.515 20.6909 20.5363 20.6632C20.6325 20.5367 20.7443 20.3661 20.8717 20.1513C21.7287 18.7086 23.2089 16.242 25.3122 12.7516C25.4332 12.5507 25.4226 12.3824 25.292 12.2019C25.1115 11.9531 24.9799 11.7505 24.8971 11.5941Z" fill="#89D2D2" stroke="#9DD6DB" stroke-width="0.304709"/>
<path d="M41.0359 20.7355C41.0454 20.7514 41.0589 20.7646 41.0753 20.7738C41.0917 20.7831 41.1103 20.7882 41.1293 20.7886L42.9849 20.8161C43.0043 20.8163 43.0235 20.8115 43.0404 20.8023C43.0573 20.793 43.0714 20.7796 43.0812 20.7635C43.091 20.7473 43.0962 20.729 43.0963 20.7103C43.0963 20.6916 43.0912 20.6732 43.0815 20.657L37.2419 10.9383C37.2323 10.922 37.2183 10.9084 37.2014 10.899C37.1845 10.8895 37.1654 10.8845 37.1458 10.8845C37.1263 10.8845 37.1071 10.8895 37.0902 10.899C37.0733 10.9084 37.0594 10.922 37.0497 10.9383L36.1496 12.4537C36.1399 12.4699 36.1348 12.4882 36.1348 12.5068C36.1348 12.5254 36.1399 12.5437 36.1496 12.5598L41.0359 20.7355Z" fill="#89D2D2" stroke="#9DD6DB" stroke-width="0.304709"/>
<path d="M36.6989 21.0945L33.8518 16.3494C33.7839 16.2352 33.6816 16.1781 33.5451 16.1781L28.0102 16.177C27.944 16.177 27.879 16.1938 27.8216 16.2256C27.7642 16.2575 27.7165 16.3033 27.6832 16.3586L24.8754 21.0374C24.847 21.0845 24.832 21.138 24.832 21.1926C24.832 21.2472 24.847 21.301 24.8754 21.3484L27.7034 26.0579C27.7123 26.0731 27.7247 26.0863 27.7398 26.0964C27.7549 26.1064 27.7722 26.1131 27.7904 26.116C27.9879 26.1459 28.2373 26.1609 28.5388 26.1609C30.0165 26.1616 31.4938 26.1663 32.9708 26.1751C33.2446 26.1765 33.5076 26.1551 33.7595 26.1109C33.7775 26.1077 33.7945 26.1009 33.8093 26.0908C33.8242 26.0808 33.8365 26.0678 33.8455 26.0528C34.7435 24.5306 35.636 23.0457 36.5227 21.5983C36.6005 21.4712 36.6632 21.3338 36.7106 21.1863C36.7153 21.1711 36.7167 21.1552 36.7147 21.1394C36.7127 21.1236 36.7073 21.1083 36.6989 21.0945Z" fill="#89D2D2" stroke="#98C8CF" stroke-width="0.304709"/>
<path d="M54.089 22.0715C54.2384 21.822 54.3849 21.5837 54.5285 21.3566C54.5377 21.3417 54.5426 21.3247 54.5428 21.3074C54.5429 21.2901 54.5383 21.273 54.5293 21.258C54.5204 21.243 54.5074 21.2305 54.4918 21.2218C54.4762 21.2132 54.4584 21.2087 54.4404 21.2087L52.743 21.2189C52.7 21.2193 52.6579 21.2304 52.6208 21.2511C52.5838 21.2719 52.5531 21.3016 52.5317 21.3372C49.0357 27.1549 45.55 32.9545 42.0745 38.736C41.9736 38.9043 41.946 39.0787 42.0405 39.2684C42.2783 39.7443 42.5472 40.1906 42.8473 40.6074C42.8554 40.6188 42.8666 40.628 42.8797 40.6339C42.8927 40.6399 42.9072 40.6424 42.9217 40.6412C42.9362 40.6401 42.9502 40.6354 42.9623 40.6274C42.9743 40.6195 42.9841 40.6088 42.9906 40.5962C43.0946 40.3888 43.2071 40.1845 43.3281 39.9833C46.919 34.0147 50.506 28.0441 54.089 22.0715Z" fill="#89D2D2" stroke="#C4E9E9" stroke-width="0.304709"/>
<path d="M16.6529 37.3297C17.2983 38.4046 17.9313 39.4835 18.552 40.5665C18.5616 40.5835 18.5757 40.5977 18.593 40.6076C18.6102 40.6175 18.6299 40.6229 18.6501 40.6231C18.6703 40.6233 18.6902 40.6184 18.7078 40.6088C18.7255 40.5992 18.7402 40.5853 18.7505 40.5686C18.9869 40.1858 19.2286 39.7963 19.4755 39.3999C19.6128 39.1803 19.6146 38.959 19.4809 38.736C15.982 32.9129 12.4824 27.0885 8.98215 21.2628C8.96163 21.2288 8.9312 21.2118 8.89086 21.2118L7.07455 21.2169C7.06144 21.217 7.0486 21.2204 7.03729 21.2268C7.02597 21.2331 7.01658 21.2422 7.01004 21.2531C7.00351 21.2641 7.00004 21.2764 7 21.289C6.99996 21.3016 7.00333 21.314 7.0098 21.325C10.2327 26.6592 13.447 31.9941 16.6529 37.3297Z" fill="#89D2D2" stroke="#C4E9E9" stroke-width="0.304709"/>
<path d="M36.0586 30.2411C35.8538 29.928 35.8676 29.6924 35.3856 29.6873C32.3057 29.6499 29.2255 29.654 26.1449 29.6996C25.8858 29.7026 25.7584 29.772 25.6385 29.9821C25.3901 30.4185 25.0971 30.8479 24.8848 31.3007C24.8772 31.3172 24.8739 31.3352 24.8753 31.3532C24.8767 31.3712 24.8828 31.3886 24.8929 31.4037C24.9031 31.4188 24.917 31.4312 24.9333 31.4397C24.9497 31.4483 24.9681 31.4527 24.9867 31.4526L36.5013 31.472C36.6804 31.472 36.7299 31.3952 36.6499 31.2415C36.4864 30.9274 36.2893 30.5939 36.0586 30.2411Z" fill="#89D2D2" stroke="#9DD6DB" stroke-width="0.304709"/>
<path d="M23.0211 34.5008C22.9978 34.5008 22.9749 34.5066 22.9546 34.5177C22.9343 34.5288 22.9174 34.5448 22.9054 34.564L21.9819 36.058C21.9697 36.0777 21.9631 36.1001 21.9629 36.123C21.9626 36.1458 21.9687 36.1684 21.9805 36.1883C21.9922 36.2081 22.0093 36.2247 22.0298 36.2362C22.0504 36.2477 22.0738 36.2538 22.0976 36.2538H39.4072C39.4306 36.2537 39.4536 36.2477 39.4739 36.2364C39.4942 36.2251 39.511 36.2089 39.5228 36.1895C39.5346 36.17 39.5409 36.1479 39.5411 36.1254C39.5413 36.1029 39.5354 36.0807 39.524 36.0611L38.6545 34.5671C38.6429 34.5471 38.626 34.5304 38.6055 34.5188C38.585 34.5072 38.5616 34.5009 38.5378 34.5008H23.0211Z" fill="#89D2D2" stroke="#C4E9E9" stroke-width="0.304709"/>
<path d="M42.3944 40.9133C42.2129 40.5248 41.6864 39.3428 41.2246 39.3428C34.2156 39.3435 27.2295 39.3439 20.2665 39.3439C20.1914 39.3439 20.1176 39.3629 20.0528 39.3991C19.9879 39.4353 19.9342 39.4873 19.8971 39.5499L19.1359 40.8195C19.1249 40.8379 19.1191 40.8587 19.1191 40.8799C19.1192 40.9011 19.125 40.9219 19.1361 40.9402C19.1472 40.9585 19.1632 40.9737 19.1823 40.9842C19.2015 40.9947 19.2232 41.0002 19.2453 41L42.3382 40.997C42.3485 40.997 42.3586 40.9945 42.3677 40.9898C42.3768 40.9851 42.3845 40.9782 42.3901 40.9699C42.3957 40.9616 42.399 40.952 42.3998 40.9422C42.4005 40.9323 42.3987 40.9224 42.3944 40.9133Z" fill="#89D2D2" stroke="#DBF1F5" stroke-width="0.304709"/>
</g>
<g filter="url(#filter2_dd_1575_17456)">
<path d="M38.5723 1.04118C39.4237 1.03812 41.0468 0.953481 42.2898 1.03608C42.3861 1.0422 42.414 1.08741 42.3737 1.17172C42.1649 1.61227 41.9272 2.00829 41.6603 2.35978C41.4735 2.60556 41.2835 2.62289 40.9873 2.62493C33.9698 2.66165 27.804 2.66403 22.4899 2.63207C21.8572 2.62799 20.9888 2.71977 20.2617 2.65655C20.1322 2.64499 20.0253 2.57938 19.9411 2.45973C19.6658 2.06744 19.4018 1.63845 19.1492 1.17274C19.1404 1.15651 19.1361 1.13839 19.1368 1.12011C19.1374 1.10183 19.143 1.08403 19.1529 1.06843C19.1629 1.05283 19.1768 1.03997 19.1935 1.03108C19.2101 1.0222 19.2289 1.0176 19.2479 1.01773C25.6773 1.0524 32.1188 1.06022 38.5723 1.04118Z" fill="#89D2D2"/>
</g>
<g filter="url(#filter3_dd_1575_17456)">
<path d="M52.5986 20.7356L41.929 2.9676C41.9196 2.95202 41.9145 2.93439 41.9141 2.91637C41.9137 2.89835 41.9181 2.88053 41.9269 2.8646L42.7645 1.36142C42.7737 1.34469 42.7875 1.33064 42.8043 1.32075C42.8211 1.31086 42.8404 1.30547 42.8601 1.30516C42.8799 1.30485 42.8993 1.30962 42.9165 1.31897C42.9336 1.32833 42.9478 1.34193 42.9577 1.35836L54.5222 20.5999C54.5318 20.6159 54.5369 20.634 54.537 20.6525C54.5371 20.6709 54.5322 20.689 54.5227 20.7051C54.5133 20.7212 54.4997 20.7346 54.4832 20.744C54.4667 20.7535 54.4479 20.7587 54.4288 20.759L52.6963 20.7886C52.6766 20.789 52.6571 20.7842 52.6399 20.7749C52.6228 20.7656 52.6085 20.752 52.5986 20.7356Z" fill="#89D2D2"/>
</g>
<g filter="url(#filter4_dd_1575_17456)">
<path d="M19.6238 2.96862L8.96589 20.7101C8.95838 20.7226 8.94764 20.733 8.93466 20.7405C8.92167 20.748 8.90686 20.7523 8.89158 20.7529C8.40964 20.7719 7.93052 20.7866 7.45424 20.7968C7.30846 20.7995 7.19806 20.7866 7.12304 20.758C7.02113 20.7186 6.99742 20.6533 7.05192 20.5622C10.6456 14.5943 14.217 8.65197 17.7661 2.73509C18.0322 2.29045 18.2767 1.86146 18.4996 1.4481C18.5725 1.31281 18.6546 1.30703 18.7459 1.43076C19.0835 1.88763 19.3765 2.36932 19.6249 2.87582C19.6324 2.89129 19.6363 2.90781 19.6361 2.92397C19.6359 2.94013 19.6317 2.95545 19.6238 2.96862Z" fill="#89D2D2"/>
</g>
<g filter="url(#filter5_dd_1575_17456)">
<path d="M22.539 7.73619L14.76 20.6897C14.7439 20.7167 14.7206 20.7391 14.6925 20.7549C14.6644 20.7706 14.6324 20.7791 14.5997 20.7794L12.7919 20.7988C12.7807 20.7988 12.7697 20.7963 12.7597 20.7913C12.7498 20.7863 12.7413 20.7791 12.7349 20.7703C12.7286 20.7615 12.7245 20.7513 12.7232 20.7406C12.7218 20.7299 12.7232 20.7191 12.7271 20.7091C12.8106 20.4935 12.9125 20.2859 13.0328 20.086C15.5331 15.9272 18.0405 11.7726 20.555 7.62197C20.8395 7.15219 21.1158 6.6603 21.384 6.14632C21.3946 6.12616 21.4106 6.10911 21.4304 6.09696C21.4502 6.08481 21.473 6.07801 21.4965 6.07728C21.5199 6.07654 21.5432 6.08191 21.5638 6.0928C21.5843 6.1037 21.6014 6.11972 21.6133 6.13918L22.539 7.65155C22.5467 7.66459 22.5508 7.67928 22.5508 7.69414C22.5508 7.709 22.5467 7.7235 22.539 7.73619Z" fill="#89D2D2"/>
</g>
<g filter="url(#filter6_dd_1575_17456)">
<path d="M46.816 20.7244L39.0306 7.76271C39.0195 7.74407 39.0137 7.72298 39.0137 7.70152C39.0137 7.68006 39.0195 7.65897 39.0306 7.64034L39.918 6.15143C39.9293 6.13257 39.9455 6.1169 39.9651 6.106C39.9846 6.0951 40.0069 6.08936 40.0295 6.08936C40.0521 6.08936 40.0743 6.0951 40.0939 6.106C40.1135 6.1169 40.1297 6.13257 40.141 6.15143L48.8393 20.6112C48.8507 20.63 48.8567 20.6513 48.8568 20.6731C48.8568 20.6948 48.8509 20.7162 48.8396 20.735C48.8283 20.7539 48.812 20.7695 48.7924 20.7804C48.7727 20.7912 48.7505 20.7969 48.7278 20.7968L46.9264 20.7856C46.904 20.7855 46.8821 20.7798 46.8627 20.769C46.8433 20.7583 46.8272 20.7429 46.816 20.7244Z" fill="#89D2D2"/>
</g>
<g filter="url(#filter7_dd_1575_17456)">
<path d="M24.8971 11.5941C24.9799 11.7505 25.1115 11.9531 25.292 12.2019C25.4226 12.3824 25.4332 12.5507 25.3122 12.7516C23.2089 16.242 21.7287 18.7086 20.8717 20.1513C20.7443 20.3661 20.6325 20.5367 20.5363 20.6632C20.515 20.6909 20.485 20.7107 20.4513 20.7193C19.8813 20.8692 19.1149 20.8039 18.5193 20.7958C18.5102 20.7954 18.5012 20.793 18.4932 20.7886C18.4853 20.7843 18.4785 20.7782 18.4736 20.7709C18.4687 20.7635 18.4658 20.7552 18.465 20.7465C18.4643 20.7379 18.4658 20.7292 18.4694 20.7213C18.5621 20.516 18.7122 20.242 18.9195 19.8994C20.4843 17.3077 22.0412 14.712 23.5903 12.1122C23.8402 11.6927 24.0978 11.2909 24.3631 10.9068C24.3696 10.8976 24.3784 10.89 24.3886 10.8849C24.3988 10.8797 24.4103 10.8771 24.4218 10.8772C24.4334 10.8773 24.4447 10.8801 24.4549 10.8855C24.465 10.8908 24.4736 10.8985 24.4799 10.9078C24.637 11.1355 24.7761 11.3643 24.8971 11.5941Z" fill="#89D2D2"/>
</g>
<g filter="url(#filter8_dd_1575_17456)">
<path d="M41.0359 20.7355L36.1496 12.5598C36.1399 12.5437 36.1348 12.5254 36.1348 12.5068C36.1348 12.4882 36.1399 12.4699 36.1496 12.4537L37.0497 10.9383C37.0594 10.922 37.0733 10.9084 37.0902 10.899C37.1071 10.8895 37.1263 10.8845 37.1458 10.8845C37.1654 10.8845 37.1845 10.8895 37.2014 10.899C37.2183 10.9084 37.2323 10.922 37.2419 10.9383L43.0815 20.657C43.0912 20.6732 43.0963 20.6916 43.0963 20.7103C43.0962 20.729 43.091 20.7473 43.0812 20.7635C43.0714 20.7796 43.0573 20.793 43.0404 20.8023C43.0235 20.8115 43.0043 20.8163 42.9849 20.8161L41.1293 20.7886C41.1103 20.7882 41.0917 20.7831 41.0753 20.7738C41.0589 20.7646 41.0454 20.7514 41.0359 20.7355Z" fill="#89D2D2"/>
</g>
<g filter="url(#filter9_dd_1575_17456)">
<path d="M33.8518 16.3494L36.6989 21.0945C36.7073 21.1083 36.7127 21.1236 36.7147 21.1394C36.7167 21.1552 36.7153 21.1711 36.7106 21.1863C36.6632 21.3338 36.6005 21.4712 36.5227 21.5983C35.636 23.0457 34.7435 24.5306 33.8455 26.0528C33.8365 26.0678 33.8242 26.0808 33.8093 26.0908C33.7945 26.1009 33.7775 26.1077 33.7595 26.1109C33.5076 26.1551 33.2446 26.1765 32.9708 26.1751C31.4938 26.1663 30.0165 26.1616 28.5388 26.1609C28.2373 26.1609 27.9879 26.1459 27.7904 26.116C27.7722 26.1131 27.7549 26.1064 27.7398 26.0964C27.7247 26.0863 27.7123 26.0731 27.7034 26.0579L24.8754 21.3484C24.847 21.301 24.832 21.2472 24.832 21.1926C24.832 21.138 24.847 21.0845 24.8754 21.0374L27.6832 16.3586C27.7165 16.3033 27.7642 16.2575 27.8216 16.2256C27.879 16.1938 27.944 16.177 28.0102 16.177L33.5451 16.1781C33.6816 16.1781 33.7839 16.2352 33.8518 16.3494Z" fill="#89D2D2"/>
</g>
<g filter="url(#filter10_dd_1575_17456)">
<path d="M54.089 22.0715C50.506 28.0441 46.919 34.0147 43.3281 39.9833C43.2071 40.1845 43.0946 40.3888 42.9906 40.5962C42.9841 40.6088 42.9743 40.6195 42.9623 40.6274C42.9502 40.6354 42.9362 40.6401 42.9217 40.6412C42.9072 40.6424 42.8927 40.6399 42.8797 40.6339C42.8666 40.628 42.8554 40.6188 42.8473 40.6074C42.5472 40.1906 42.2783 39.7443 42.0405 39.2684C41.946 39.0787 41.9736 38.9043 42.0745 38.736C45.55 32.9545 49.0357 27.1549 52.5317 21.3372C52.5531 21.3016 52.5838 21.2719 52.6208 21.2511C52.6579 21.2304 52.7 21.2193 52.743 21.2189L54.4404 21.2087C54.4584 21.2087 54.4762 21.2132 54.4918 21.2218C54.5074 21.2305 54.5204 21.243 54.5293 21.258C54.5383 21.273 54.5429 21.2901 54.5428 21.3074C54.5426 21.3247 54.5377 21.3417 54.5285 21.3566C54.3849 21.5837 54.2384 21.822 54.089 22.0715Z" fill="#89D2D2"/>
</g>
<g filter="url(#filter11_dd_1575_17456)">
<path d="M16.6529 37.3297C13.447 31.9941 10.2327 26.6592 7.0098 21.325C7.00333 21.314 6.99996 21.3016 7 21.289C7.00004 21.2764 7.00351 21.2641 7.01004 21.2531C7.01658 21.2422 7.02597 21.2331 7.03729 21.2268C7.0486 21.2204 7.06144 21.217 7.07455 21.2169L8.89086 21.2118C8.9312 21.2118 8.96163 21.2288 8.98215 21.2628C12.4824 27.0885 15.982 32.9129 19.4809 38.736C19.6146 38.959 19.6128 39.1803 19.4755 39.3999C19.2286 39.7963 18.9869 40.1858 18.7505 40.5686C18.7402 40.5853 18.7255 40.5992 18.7078 40.6088C18.6902 40.6184 18.6703 40.6233 18.6501 40.6231C18.6299 40.6229 18.6102 40.6175 18.593 40.6076C18.5757 40.5977 18.5616 40.5835 18.552 40.5665C17.9313 39.4835 17.2983 38.4046 16.6529 37.3297Z" fill="#89D2D2"/>
</g>
<g filter="url(#filter12_dd_1575_17456)">
<path d="M36.0586 30.2411C36.2893 30.5939 36.4864 30.9274 36.6499 31.2415C36.7299 31.3952 36.6804 31.472 36.5013 31.472L24.9867 31.4526C24.9681 31.4527 24.9497 31.4483 24.9333 31.4397C24.917 31.4312 24.9031 31.4188 24.8929 31.4037C24.8828 31.3886 24.8767 31.3712 24.8753 31.3532C24.8739 31.3352 24.8772 31.3172 24.8848 31.3007C25.0971 30.8479 25.3901 30.4185 25.6385 29.9821C25.7584 29.772 25.8858 29.7026 26.1449 29.6996C29.2255 29.654 32.3057 29.6499 35.3856 29.6873C35.8676 29.6924 35.8538 29.928 36.0586 30.2411Z" fill="#89D2D2"/>
</g>
<g filter="url(#filter13_dd_1575_17456)">
<path d="M23.0211 34.5009H38.5378C38.5616 34.501 38.585 34.5072 38.6055 34.5189C38.626 34.5305 38.6429 34.5472 38.6545 34.5671L39.524 36.0611C39.5354 36.0808 39.5413 36.103 39.5411 36.1255C39.5409 36.148 39.5346 36.1701 39.5228 36.1895C39.511 36.209 39.4942 36.2252 39.4739 36.2364C39.4536 36.2477 39.4306 36.2537 39.4072 36.2539H22.0976C22.0738 36.2539 22.0504 36.2478 22.0298 36.2363C22.0093 36.2248 21.9922 36.2082 21.9805 36.1883C21.9687 36.1684 21.9626 36.1459 21.9629 36.123C21.9631 36.1001 21.9697 36.0777 21.9819 36.0581L22.9054 34.5641C22.9174 34.5448 22.9343 34.5289 22.9546 34.5178C22.9749 34.5067 22.9978 34.5009 23.0211 34.5009Z" fill="#89D2D2"/>
</g>
<g filter="url(#filter14_dd_1575_17456)">
<path d="M41.2246 39.3428C41.6864 39.3428 42.2129 40.5248 42.3944 40.9133C42.3987 40.9224 42.4005 40.9323 42.3998 40.9422C42.399 40.952 42.3957 40.9616 42.3901 40.9699C42.3845 40.9782 42.3768 40.9851 42.3677 40.9898C42.3586 40.9945 42.3485 40.997 42.3382 40.997L19.2453 41C19.2232 41.0002 19.2015 40.9947 19.1823 40.9842C19.1632 40.9737 19.1472 40.9585 19.1361 40.9402C19.125 40.9219 19.1192 40.9011 19.1191 40.8799C19.1191 40.8587 19.1249 40.8379 19.1359 40.8195L19.8971 39.5499C19.9342 39.4873 19.9879 39.4353 20.0528 39.3991C20.1176 39.3629 20.1914 39.3439 20.2665 39.3439C27.2295 39.3439 34.2156 39.3435 41.2246 39.3428Z" fill="#89D2D2"/>
</g>
</g>
<defs>
<filter id="filter0_d_1575_17456" x="0.0529704" y="0.847717" width="61.437" height="53.894" filterUnits="userSpaceOnUse" color-interpolation-filters="sRGB">
<feFlood flood-opacity="0" result="BackgroundImageFix"/>
<feColorMatrix in="SourceAlpha" type="matrix" values="0 0 0 0 0 0 0 0 0 0 0 0 0 0 0 0 0 0 127 0" result="hardAlpha"/>
<feOffset dy="6.79469"/>
<feGaussianBlur stdDeviation="3.39734"/>
<feComposite in2="hardAlpha" operator="out"/>
<feColorMatrix type="matrix" values="0 0 0 0 0 0 0 0 0 0 0 0 0 0 0 0 0 0 0.25 0"/>
<feBlend mode="normal" in2="BackgroundImageFix" result="effect1_dropShadow_1575_17456"/>
<feBlend mode="normal" in="SourceGraphic" in2="effect1_dropShadow_1575_17456" result="shape"/>
</filter>
<filter id="filter1_dd_1575_17456" x="6.23824" y="0.847717" width="49.0665" height="41.5235" filterUnits="userSpaceOnUse" color-interpolation-filters="sRGB">
<feFlood flood-opacity="0" result="BackgroundImageFix"/>
<feColorMatrix in="SourceAlpha" type="matrix" values="0 0 0 0 0 0 0 0 0 0 0 0 0 0 0 0 0 0 127 0" result="hardAlpha"/>
<feOffset dy="0.609419"/>
<feGaussianBlur stdDeviation="0.304709"/>
<feComposite in2="hardAlpha" operator="out"/>
<feColorMatrix type="matrix" values="0 0 0 0 0 0 0 0 0 0 0 0 0 0 0 0 0 0 0.25 0"/>
<feBlend mode="normal" in2="BackgroundImageFix" result="effect1_dropShadow_1575_17456"/>
<feColorMatrix in="SourceAlpha" type="matrix" values="0 0 0 0 0 0 0 0 0 0 0 0 0 0 0 0 0 0 127 0" result="hardAlpha"/>
<feOffset dy="0.609419"/>
<feGaussianBlur stdDeviation="0.304709"/>
<feComposite in2="hardAlpha" operator="out"/>
<feColorMatrix type="matrix" values="0 0 0 0 0 0 0 0 0 0 0 0 0 0 0 0 0 0 0.25 0"/>
<feBlend mode="normal" in2="effect1_dropShadow_1575_17456" result="effect2_dropShadow_1575_17456"/>
<feBlend mode="normal" in="SourceGraphic" in2="effect2_dropShadow_1575_17456" result="shape"/>
</filter>
<filter id="filter2_dd_1575_17456" x="18.5273" y="1" width="24.4727" height="2.89767" filterUnits="userSpaceOnUse" color-interpolation-filters="sRGB">
<feFlood flood-opacity="0" result="BackgroundImageFix"/>
<feColorMatrix in="SourceAlpha" type="matrix" values="0 0 0 0 0 0 0 0 0 0 0 0 0 0 0 0 0 0 127 0" result="hardAlpha"/>
<feOffset dy="0.609419"/>
<feGaussianBlur stdDeviation="0.304709"/>
<feComposite in2="hardAlpha" operator="out"/>
<feColorMatrix type="matrix" values="0 0 0 0 0 0 0 0 0 0 0 0 0 0 0 0 0 0 0.25 0"/>
<feBlend mode="normal" in2="BackgroundImageFix" result="effect1_dropShadow_1575_17456"/>
<feColorMatrix in="SourceAlpha" type="matrix" values="0 0 0 0 0 0 0 0 0 0 0 0 0 0 0 0 0 0 127 0" result="hardAlpha"/>
<feOffset dy="0.609419"/>
<feGaussianBlur stdDeviation="0.304709"/>
<feComposite in2="hardAlpha" operator="out"/>
<feColorMatrix type="matrix" values="0 0 0 0 0 0 0 0 0 0 0 0 0 0 0 0 0 0 0.25 0"/>
<feBlend mode="normal" in2="effect1_dropShadow_1575_17456" result="effect2_dropShadow_1575_17456"/>
<feBlend mode="normal" in="SourceGraphic" in2="effect2_dropShadow_1575_17456" result="shape"/>
</filter>
<filter id="filter3_dd_1575_17456" x="41.3046" y="1.30515" width="13.8419" height="20.7023" filterUnits="userSpaceOnUse" color-interpolation-filters="sRGB">
<feFlood flood-opacity="0" result="BackgroundImageFix"/>
<feColorMatrix in="SourceAlpha" type="matrix" values="0 0 0 0 0 0 0 0 0 0 0 0 0 0 0 0 0 0 127 0" result="hardAlpha"/>
<feOffset dy="0.609419"/>
<feGaussianBlur stdDeviation="0.304709"/>
<feComposite in2="hardAlpha" operator="out"/>
<feColorMatrix type="matrix" values="0 0 0 0 0 0 0 0 0 0 0 0 0 0 0 0 0 0 0.25 0"/>
<feBlend mode="normal" in2="BackgroundImageFix" result="effect1_dropShadow_1575_17456"/>
<feColorMatrix in="SourceAlpha" type="matrix" values="0 0 0 0 0 0 0 0 0 0 0 0 0 0 0 0 0 0 127 0" result="hardAlpha"/>
<feOffset dy="0.609419"/>
<feGaussianBlur stdDeviation="0.304709"/>
<feComposite in2="hardAlpha" operator="out"/>
<feColorMatrix type="matrix" values="0 0 0 0 0 0 0 0 0 0 0 0 0 0 0 0 0 0 0.25 0"/>
<feBlend mode="normal" in2="effect1_dropShadow_1575_17456" result="effect2_dropShadow_1575_17456"/>
<feBlend mode="normal" in="SourceGraphic" in2="effect2_dropShadow_1575_17456" result="shape"/>
</filter>
<filter id="filter4_dd_1575_17456" x="6.41402" y="1.3421" width="13.8321" height="20.6739" filterUnits="userSpaceOnUse" color-interpolation-filters="sRGB">
<feFlood flood-opacity="0" result="BackgroundImageFix"/>
<feColorMatrix in="SourceAlpha" type="matrix" values="0 0 0 0 0 0 0 0 0 0 0 0 0 0 0 0 0 0 127 0" result="hardAlpha"/>
<feOffset dy="0.609419"/>
<feGaussianBlur stdDeviation="0.304709"/>
<feComposite in2="hardAlpha" operator="out"/>
<feColorMatrix type="matrix" values="0 0 0 0 0 0 0 0 0 0 0 0 0 0 0 0 0 0 0.25 0"/>
<feBlend mode="normal" in2="BackgroundImageFix" result="effect1_dropShadow_1575_17456"/>
<feColorMatrix in="SourceAlpha" type="matrix" values="0 0 0 0 0 0 0 0 0 0 0 0 0 0 0 0 0 0 127 0" result="hardAlpha"/>
<feOffset dy="0.609419"/>
<feGaussianBlur stdDeviation="0.304709"/>
<feComposite in2="hardAlpha" operator="out"/>
<feColorMatrix type="matrix" values="0 0 0 0 0 0 0 0 0 0 0 0 0 0 0 0 0 0 0.25 0"/>
<feBlend mode="normal" in2="effect1_dropShadow_1575_17456" result="effect2_dropShadow_1575_17456"/>
<feBlend mode="normal" in="SourceGraphic" in2="effect2_dropShadow_1575_17456" result="shape"/>
</filter>
<filter id="filter5_dd_1575_17456" x="12.1132" y="6.07721" width="11.047" height="15.9404" filterUnits="userSpaceOnUse" color-interpolation-filters="sRGB">
<feFlood flood-opacity="0" result="BackgroundImageFix"/>
<feColorMatrix in="SourceAlpha" type="matrix" values="0 0 0 0 0 0 0 0 0 0 0 0 0 0 0 0 0 0 127 0" result="hardAlpha"/>
<feOffset dy="0.609419"/>
<feGaussianBlur stdDeviation="0.304709"/>
<feComposite in2="hardAlpha" operator="out"/>
<feColorMatrix type="matrix" values="0 0 0 0 0 0 0 0 0 0 0 0 0 0 0 0 0 0 0.25 0"/>
<feBlend mode="normal" in2="BackgroundImageFix" result="effect1_dropShadow_1575_17456"/>
<feColorMatrix in="SourceAlpha" type="matrix" values="0 0 0 0 0 0 0 0 0 0 0 0 0 0 0 0 0 0 127 0" result="hardAlpha"/>
<feOffset dy="0.609419"/>
<feGaussianBlur stdDeviation="0.304709"/>
<feComposite in2="hardAlpha" operator="out"/>
<feColorMatrix type="matrix" values="0 0 0 0 0 0 0 0 0 0 0 0 0 0 0 0 0 0 0.25 0"/>
<feBlend mode="normal" in2="effect1_dropShadow_1575_17456" result="effect2_dropShadow_1575_17456"/>
<feBlend mode="normal" in="SourceGraphic" in2="effect2_dropShadow_1575_17456" result="shape"/>
</filter>
<filter id="filter6_dd_1575_17456" x="38.4043" y="6.08936" width="11.0626" height="15.9263" filterUnits="userSpaceOnUse" color-interpolation-filters="sRGB">
<feFlood flood-opacity="0" result="BackgroundImageFix"/>
<feColorMatrix in="SourceAlpha" type="matrix" values="0 0 0 0 0 0 0 0 0 0 0 0 0 0 0 0 0 0 127 0" result="hardAlpha"/>
<feOffset dy="0.609419"/>
<feGaussianBlur stdDeviation="0.304709"/>
<feComposite in2="hardAlpha" operator="out"/>
<feColorMatrix type="matrix" values="0 0 0 0 0 0 0 0 0 0 0 0 0 0 0 0 0 0 0.25 0"/>
<feBlend mode="normal" in2="BackgroundImageFix" result="effect1_dropShadow_1575_17456"/>
<feColorMatrix in="SourceAlpha" type="matrix" values="0 0 0 0 0 0 0 0 0 0 0 0 0 0 0 0 0 0 127 0" result="hardAlpha"/>
<feOffset dy="0.609419"/>
<feGaussianBlur stdDeviation="0.304709"/>
<feComposite in2="hardAlpha" operator="out"/>
<feColorMatrix type="matrix" values="0 0 0 0 0 0 0 0 0 0 0 0 0 0 0 0 0 0 0.25 0"/>
<feBlend mode="normal" in2="effect1_dropShadow_1575_17456" result="effect2_dropShadow_1575_17456"/>
<feBlend mode="normal" in="SourceGraphic" in2="effect2_dropShadow_1575_17456" result="shape"/>
</filter>
<filter id="filter7_dd_1575_17456" x="17.8554" y="10.8772" width="8.15048" height="11.1586" filterUnits="userSpaceOnUse" color-interpolation-filters="sRGB">
<feFlood flood-opacity="0" result="BackgroundImageFix"/>
<feColorMatrix in="SourceAlpha" type="matrix" values="0 0 0 0 0 0 0 0 0 0 0 0 0 0 0 0 0 0 127 0" result="hardAlpha"/>
<feOffset dy="0.609419"/>
<feGaussianBlur stdDeviation="0.304709"/>
<feComposite in2="hardAlpha" operator="out"/>
<feColorMatrix type="matrix" values="0 0 0 0 0 0 0 0 0 0 0 0 0 0 0 0 0 0 0.25 0"/>
<feBlend mode="normal" in2="BackgroundImageFix" result="effect1_dropShadow_1575_17456"/>
<feColorMatrix in="SourceAlpha" type="matrix" values="0 0 0 0 0 0 0 0 0 0 0 0 0 0 0 0 0 0 127 0" result="hardAlpha"/>
<feOffset dy="0.609419"/>
<feGaussianBlur stdDeviation="0.304709"/>
<feComposite in2="hardAlpha" operator="out"/>
<feColorMatrix type="matrix" values="0 0 0 0 0 0 0 0 0 0 0 0 0 0 0 0 0 0 0.25 0"/>
<feBlend mode="normal" in2="effect1_dropShadow_1575_17456" result="effect2_dropShadow_1575_17456"/>
<feBlend mode="normal" in="SourceGraphic" in2="effect2_dropShadow_1575_17456" result="shape"/>
</filter>
<filter id="filter8_dd_1575_17456" x="35.5253" y="10.8845" width="8.17978" height="11.1504" filterUnits="userSpaceOnUse" color-interpolation-filters="sRGB">
<feFlood flood-opacity="0" result="BackgroundImageFix"/>
<feColorMatrix in="SourceAlpha" type="matrix" values="0 0 0 0 0 0 0 0 0 0 0 0 0 0 0 0 0 0 127 0" result="hardAlpha"/>
<feOffset dy="0.609419"/>
<feGaussianBlur stdDeviation="0.304709"/>
<feComposite in2="hardAlpha" operator="out"/>
<feColorMatrix type="matrix" values="0 0 0 0 0 0 0 0 0 0 0 0 0 0 0 0 0 0 0.25 0"/>
<feBlend mode="normal" in2="BackgroundImageFix" result="effect1_dropShadow_1575_17456"/>
<feColorMatrix in="SourceAlpha" type="matrix" values="0 0 0 0 0 0 0 0 0 0 0 0 0 0 0 0 0 0 127 0" result="hardAlpha"/>
<feOffset dy="0.609419"/>
<feGaussianBlur stdDeviation="0.304709"/>
<feComposite in2="hardAlpha" operator="out"/>
<feColorMatrix type="matrix" values="0 0 0 0 0 0 0 0 0 0 0 0 0 0 0 0 0 0 0.25 0"/>
<feBlend mode="normal" in2="effect1_dropShadow_1575_17456" result="effect2_dropShadow_1575_17456"/>
<feBlend mode="normal" in="SourceGraphic" in2="effect2_dropShadow_1575_17456" result="shape"/>
</filter>
<filter id="filter9_dd_1575_17456" x="24.2226" y="16.177" width="13.1017" height="11.217" filterUnits="userSpaceOnUse" color-interpolation-filters="sRGB">
<feFlood flood-opacity="0" result="BackgroundImageFix"/>
<feColorMatrix in="SourceAlpha" type="matrix" values="0 0 0 0 0 0 0 0 0 0 0 0 0 0 0 0 0 0 127 0" result="hardAlpha"/>
<feOffset dy="0.609419"/>
<feGaussianBlur stdDeviation="0.304709"/>
<feComposite in2="hardAlpha" operator="out"/>
<feColorMatrix type="matrix" values="0 0 0 0 0 0 0 0 0 0 0 0 0 0 0 0 0 0 0.25 0"/>
<feBlend mode="normal" in2="BackgroundImageFix" result="effect1_dropShadow_1575_17456"/>
<feColorMatrix in="SourceAlpha" type="matrix" values="0 0 0 0 0 0 0 0 0 0 0 0 0 0 0 0 0 0 127 0" result="hardAlpha"/>
<feOffset dy="0.609419"/>
<feGaussianBlur stdDeviation="0.304709"/>
<feComposite in2="hardAlpha" operator="out"/>
<feColorMatrix type="matrix" values="0 0 0 0 0 0 0 0 0 0 0 0 0 0 0 0 0 0 0.25 0"/>
<feBlend mode="normal" in2="effect1_dropShadow_1575_17456" result="effect2_dropShadow_1575_17456"/>
<feBlend mode="normal" in="SourceGraphic" in2="effect2_dropShadow_1575_17456" result="shape"/>
</filter>
<filter id="filter10_dd_1575_17456" x="41.373" y="21.2087" width="13.7794" height="20.6516" filterUnits="userSpaceOnUse" color-interpolation-filters="sRGB">
<feFlood flood-opacity="0" result="BackgroundImageFix"/>
<feColorMatrix in="SourceAlpha" type="matrix" values="0 0 0 0 0 0 0 0 0 0 0 0 0 0 0 0 0 0 127 0" result="hardAlpha"/>
<feOffset dy="0.609419"/>
<feGaussianBlur stdDeviation="0.304709"/>
<feComposite in2="hardAlpha" operator="out"/>
<feColorMatrix type="matrix" values="0 0 0 0 0 0 0 0 0 0 0 0 0 0 0 0 0 0 0.25 0"/>
<feBlend mode="normal" in2="BackgroundImageFix" result="effect1_dropShadow_1575_17456"/>
<feColorMatrix in="SourceAlpha" type="matrix" values="0 0 0 0 0 0 0 0 0 0 0 0 0 0 0 0 0 0 127 0" result="hardAlpha"/>
<feOffset dy="0.609419"/>
<feGaussianBlur stdDeviation="0.304709"/>
<feComposite in2="hardAlpha" operator="out"/>
<feColorMatrix type="matrix" values="0 0 0 0 0 0 0 0 0 0 0 0 0 0 0 0 0 0 0.25 0"/>
<feBlend mode="normal" in2="effect1_dropShadow_1575_17456" result="effect2_dropShadow_1575_17456"/>
<feBlend mode="normal" in="SourceGraphic" in2="effect2_dropShadow_1575_17456" result="shape"/>
</filter>
<filter id="filter11_dd_1575_17456" x="6.39058" y="21.2118" width="13.7989" height="20.6302" filterUnits="userSpaceOnUse" color-interpolation-filters="sRGB">
<feFlood flood-opacity="0" result="BackgroundImageFix"/>
<feColorMatrix in="SourceAlpha" type="matrix" values="0 0 0 0 0 0 0 0 0 0 0 0 0 0 0 0 0 0 127 0" result="hardAlpha"/>
<feOffset dy="0.609419"/>
<feGaussianBlur stdDeviation="0.304709"/>
<feComposite in2="hardAlpha" operator="out"/>
<feColorMatrix type="matrix" values="0 0 0 0 0 0 0 0 0 0 0 0 0 0 0 0 0 0 0.25 0"/>
<feBlend mode="normal" in2="BackgroundImageFix" result="effect1_dropShadow_1575_17456"/>
<feColorMatrix in="SourceAlpha" type="matrix" values="0 0 0 0 0 0 0 0 0 0 0 0 0 0 0 0 0 0 127 0" result="hardAlpha"/>
<feOffset dy="0.609419"/>
<feGaussianBlur stdDeviation="0.304709"/>
<feComposite in2="hardAlpha" operator="out"/>
<feColorMatrix type="matrix" values="0 0 0 0 0 0 0 0 0 0 0 0 0 0 0 0 0 0 0.25 0"/>
<feBlend mode="normal" in2="effect1_dropShadow_1575_17456" result="effect2_dropShadow_1575_17456"/>
<feBlend mode="normal" in="SourceGraphic" in2="effect2_dropShadow_1575_17456" result="shape"/>
</filter>
<filter id="filter12_dd_1575_17456" x="24.2656" y="29.662" width="13.0313" height="3.02877" filterUnits="userSpaceOnUse" color-interpolation-filters="sRGB">
<feFlood flood-opacity="0" result="BackgroundImageFix"/>
<feColorMatrix in="SourceAlpha" type="matrix" values="0 0 0 0 0 0 0 0 0 0 0 0 0 0 0 0 0 0 127 0" result="hardAlpha"/>
<feOffset dy="0.609419"/>
<feGaussianBlur stdDeviation="0.304709"/>
<feComposite in2="hardAlpha" operator="out"/>
<feColorMatrix type="matrix" values="0 0 0 0 0 0 0 0 0 0 0 0 0 0 0 0 0 0 0.25 0"/>
<feBlend mode="normal" in2="BackgroundImageFix" result="effect1_dropShadow_1575_17456"/>
<feColorMatrix in="SourceAlpha" type="matrix" values="0 0 0 0 0 0 0 0 0 0 0 0 0 0 0 0 0 0 127 0" result="hardAlpha"/>
<feOffset dy="0.609419"/>
<feGaussianBlur stdDeviation="0.304709"/>
<feComposite in2="hardAlpha" operator="out"/>
<feColorMatrix type="matrix" values="0 0 0 0 0 0 0 0 0 0 0 0 0 0 0 0 0 0 0.25 0"/>
<feBlend mode="normal" in2="effect1_dropShadow_1575_17456" result="effect2_dropShadow_1575_17456"/>
<feBlend mode="normal" in="SourceGraphic" in2="effect2_dropShadow_1575_17456" result="shape"/>
</filter>
<filter id="filter13_dd_1575_17456" x="21.3535" y="34.5009" width="18.797" height="2.97187" filterUnits="userSpaceOnUse" color-interpolation-filters="sRGB">
<feFlood flood-opacity="0" result="BackgroundImageFix"/>
<feColorMatrix in="SourceAlpha" type="matrix" values="0 0 0 0 0 0 0 0 0 0 0 0 0 0 0 0 0 0 127 0" result="hardAlpha"/>
<feOffset dy="0.609419"/>
<feGaussianBlur stdDeviation="0.304709"/>
<feComposite in2="hardAlpha" operator="out"/>
<feColorMatrix type="matrix" values="0 0 0 0 0 0 0 0 0 0 0 0 0 0 0 0 0 0 0.25 0"/>
<feBlend mode="normal" in2="BackgroundImageFix" result="effect1_dropShadow_1575_17456"/>
<feColorMatrix in="SourceAlpha" type="matrix" values="0 0 0 0 0 0 0 0 0 0 0 0 0 0 0 0 0 0 127 0" result="hardAlpha"/>
<feOffset dy="0.609419"/>
<feGaussianBlur stdDeviation="0.304709"/>
<feComposite in2="hardAlpha" operator="out"/>
<feColorMatrix type="matrix" values="0 0 0 0 0 0 0 0 0 0 0 0 0 0 0 0 0 0 0.25 0"/>
<feBlend mode="normal" in2="effect1_dropShadow_1575_17456" result="effect2_dropShadow_1575_17456"/>
<feBlend mode="normal" in="SourceGraphic" in2="effect2_dropShadow_1575_17456" result="shape"/>
</filter>
<filter id="filter14_dd_1575_17456" x="18.5097" y="39.3428" width="24.5001" height="2.87602" filterUnits="userSpaceOnUse" color-interpolation-filters="sRGB">
<feFlood flood-opacity="0" result="BackgroundImageFix"/>
<feColorMatrix in="SourceAlpha" type="matrix" values="0 0 0 0 0 0 0 0 0 0 0 0 0 0 0 0 0 0 127 0" result="hardAlpha"/>
<feOffset dy="0.609419"/>
<feGaussianBlur stdDeviation="0.304709"/>
<feComposite in2="hardAlpha" operator="out"/>
<feColorMatrix type="matrix" values="0 0 0 0 0 0 0 0 0 0 0 0 0 0 0 0 0 0 0.25 0"/>
<feBlend mode="normal" in2="BackgroundImageFix" result="effect1_dropShadow_1575_17456"/>
<feColorMatrix in="SourceAlpha" type="matrix" values="0 0 0 0 0 0 0 0 0 0 0 0 0 0 0 0 0 0 127 0" result="hardAlpha"/>
<feOffset dy="0.609419"/>
<feGaussianBlur stdDeviation="0.304709"/>
<feComposite in2="hardAlpha" operator="out"/>
<feColorMatrix type="matrix" values="0 0 0 0 0 0 0 0 0 0 0 0 0 0 0 0 0 0 0.25 0"/>
<feBlend mode="normal" in2="effect1_dropShadow_1575_17456" result="effect2_dropShadow_1575_17456"/>
<feBlend mode="normal" in="SourceGraphic" in2="effect2_dropShadow_1575_17456" result="shape"/>
</filter>
</defs>
</svg>
