<svg width="206" height="34" viewBox="0 0 206 34" fill="none" xmlns="http://www.w3.org/2000/svg">
<g filter="url(#filter0_dddd_1575_17484)">
<path d="M159.036 14.9188L168.624 24.2269C168.635 24.2381 168.643 24.2524 168.646 24.268C168.649 24.2836 168.647 24.2997 168.641 24.3143C168.634 24.3289 168.624 24.3413 168.61 24.3498C168.596 24.3583 168.58 24.3627 168.563 24.3622L166.388 24.3482C166.366 24.3482 166.345 24.3398 166.33 24.3249L156.743 15.0355C156.731 15.0244 156.723 15.0103 156.72 14.9949C156.717 14.9795 156.719 14.9636 156.725 14.9491C156.731 14.9347 156.742 14.9223 156.755 14.9136C156.769 14.9048 156.784 14.9002 156.801 14.9001L158.979 14.8954C159 14.8955 159.021 14.9039 159.036 14.9188Z" fill="#89D2D2"/>
<path d="M151.589 15.1382L151.577 24.2665C151.577 24.2779 151.574 24.2891 151.57 24.2996C151.565 24.3101 151.559 24.3196 151.55 24.3276C151.542 24.3356 151.532 24.342 151.521 24.3463C151.511 24.3507 151.499 24.3529 151.487 24.3529L149.98 24.3482C149.956 24.3482 149.933 24.3391 149.917 24.3229C149.9 24.3067 149.891 24.2848 149.891 24.2619L149.91 16.5433C149.91 16.5316 149.912 16.52 149.916 16.5091C149.921 16.4983 149.928 16.4885 149.936 16.4802L151.437 15.0775C151.449 15.0656 151.465 15.0575 151.482 15.0542C151.499 15.0509 151.517 15.0526 151.533 15.0591C151.55 15.0656 151.564 15.0765 151.573 15.0906C151.583 15.1047 151.588 15.1212 151.589 15.1382Z" fill="#89D2D2"/>
<path d="M116.993 22.6701L131.11 22.6608C131.137 22.6609 131.164 22.6686 131.187 22.683C131.21 22.6975 131.228 22.7179 131.239 22.7421C131.25 22.7662 131.254 22.7929 131.25 22.8191C131.246 22.8452 131.234 22.8697 131.216 22.8895L129.959 24.2806C129.946 24.2955 129.929 24.3073 129.91 24.3154C129.892 24.3235 129.871 24.3275 129.851 24.3273H115.536C115.508 24.3275 115.48 24.3196 115.456 24.3045C115.433 24.2894 115.414 24.2678 115.403 24.2424C115.393 24.2171 115.39 24.1892 115.395 24.1623C115.401 24.1354 115.415 24.1108 115.435 24.0915L116.894 22.7098C116.921 22.6846 116.956 22.6704 116.993 22.6701Z" fill="#89D2D2"/>
<path d="M194.205 11.6558C193.255 6.25957 188.766 2.08167 182.977 2.05133C182.902 2.05133 182.827 2.06576 182.757 2.09379C182.687 2.12182 182.623 2.16291 182.57 2.21471L181.089 3.66881C181.079 3.67833 181.072 3.69076 181.069 3.70431C181.067 3.71787 181.069 3.73186 181.075 3.74429C181.081 3.75671 181.091 3.76694 181.103 3.7735C181.116 3.78007 181.13 3.78264 181.144 3.78084C181.903 3.70615 182.661 3.68748 183.419 3.72482C191.163 4.1076 195.365 12.9209 190.778 18.868C186.653 24.2175 178.315 24.0985 174.509 18.4268C173.134 16.3776 172.705 14.0459 173.062 11.6348C173.065 11.6167 173.062 11.598 173.054 11.5815C173.045 11.5651 173.032 11.5517 173.015 11.5433C172.998 11.535 172.978 11.5321 172.959 11.5352C172.941 11.5382 172.923 11.5469 172.91 11.5601L171.27 13.1333C171.211 13.1908 171.183 13.2601 171.188 13.341C171.368 16.6273 172.611 19.3068 174.917 21.3794C181.844 27.6042 192.666 23.6177 194.205 14.8044" fill="#89D2D2"/>
<path d="M194.205 11.6558C193.255 6.25957 188.766 2.08167 182.977 2.05133C182.902 2.05133 182.827 2.06576 182.757 2.09379C182.687 2.12182 182.623 2.16291 182.57 2.21471L181.089 3.66881C181.079 3.67833 181.072 3.69076 181.069 3.70431C181.067 3.71787 181.069 3.73186 181.075 3.74429C181.081 3.75671 181.091 3.76694 181.103 3.7735C181.116 3.78007 181.13 3.78264 181.144 3.78084C181.903 3.70615 182.661 3.68748 183.419 3.72482C191.163 4.1076 195.365 12.9209 190.778 18.868C186.653 24.2175 178.315 24.0985 174.509 18.4268C173.134 16.3776 172.705 14.0459 173.062 11.6348C173.065 11.6167 173.062 11.598 173.054 11.5815C173.045 11.5651 173.032 11.5517 173.015 11.5433C172.998 11.535 172.978 11.5321 172.959 11.5352C172.941 11.5382 172.923 11.5469 172.91 11.5601L171.27 13.1333C171.211 13.1908 171.183 13.2601 171.188 13.341C171.368 16.6273 172.611 19.3068 174.917 21.3794C181.844 27.6042 192.666 23.6177 194.205 14.8044" stroke="#9DD6DB" stroke-width="0.565533"/>
<path d="M115.244 2C115.233 2.00008 115.223 2.00218 115.214 2.00619C115.204 2.0102 115.195 2.01603 115.188 2.02334L113.642 3.56846C113.632 3.57903 113.625 3.59229 113.622 3.60661C113.62 3.62093 113.621 3.63569 113.627 3.64908C113.633 3.66247 113.643 3.6739 113.655 3.68197C113.668 3.69004 113.683 3.69439 113.698 3.6945H128.181C128.193 3.69479 128.204 3.69264 128.214 3.6882C128.225 3.68376 128.234 3.67714 128.241 3.66882L129.587 2.12604C129.597 2.11525 129.603 2.10199 129.605 2.08784C129.608 2.07369 129.606 2.05924 129.599 2.04621C129.593 2.03318 129.583 2.02212 129.571 2.01435C129.559 2.00657 129.544 2.0024 129.529 2.00233L115.244 2Z" fill="#89D2D2" stroke="#9DD6DB" stroke-width="0.565533"/>
<path d="M6.35012 12.286C3.07234 11.4435 2.86009 5.48938 5.65067 4.04462C6.05265 3.83767 6.63874 3.73342 7.40894 3.73186C9.47675 3.72875 11.551 3.72719 13.6317 3.72719C13.676 3.7272 13.7199 3.71875 13.7609 3.70233C13.8019 3.68591 13.8391 3.66184 13.8704 3.6315L15.3489 2.23109C15.3621 2.21915 15.3712 2.20363 15.3751 2.18657C15.379 2.16952 15.3774 2.15173 15.3706 2.13555C15.3638 2.11937 15.3521 2.10556 15.3371 2.09595C15.322 2.08634 15.3043 2.08138 15.2862 2.08171C12.5656 2.07393 9.83693 2.06693 7.10022 2.0607C5.10557 2.05837 3.70667 3.01532 2.8215 4.75883C1.7072 6.95281 1.72649 9.1499 2.87939 11.3501C3.29906 12.1499 3.77259 12.7513 4.3 13.1543C4.8475 13.5698 6.63231 14.3843 7.26905 13.8288C7.73696 13.4212 8.18075 12.9855 8.60043 12.5218C8.676 12.4409 8.6567 12.3981 8.54254 12.3934C7.81173 12.3724 6.96998 12.4471 6.35012 12.286Z" fill="#89D2D2" stroke="#9DD6DB" stroke-width="0.565533"/>
<path d="M26.5131 11.7935C27.613 5.09023 35.2949 1.47717 41.3825 5.11824C41.4629 5.16804 41.5289 5.15325 41.5803 5.0739L42.2725 4.00725C42.3674 3.86254 42.3385 3.7474 42.1857 3.66181C39.3477 2.07312 36.4164 1.65378 33.3919 2.40378C30.857 3.03396 28.4837 4.53941 26.9521 6.56767C22.519 12.4354 24.9165 20.9826 32.0026 23.5944C39.3734 26.3112 47.68 21.3234 47.6897 13.4577C47.6901 13.4435 47.6861 13.4297 47.6782 13.4178C47.6703 13.4059 47.6589 13.3965 47.6453 13.3908C47.6317 13.3851 47.6166 13.3833 47.6017 13.3857C47.5869 13.388 47.573 13.3944 47.5618 13.404C46.8624 14.0272 45.9869 14.7041 45.7143 15.626C44.8589 18.4969 43.1336 20.5422 40.5384 21.7621C33.3967 25.1185 25.2734 19.3441 26.5131 11.7935Z" fill="#89D2D2" stroke="#9DD6DB" stroke-width="0.565533"/>
<path d="M140.933 2.08635C140.917 2.0861 140.9 2.0906 140.887 2.09927C140.873 2.10793 140.862 2.12039 140.855 2.13509C140.848 2.14978 140.846 2.16605 140.849 2.18187C140.852 2.1977 140.859 2.21237 140.871 2.22405L142.359 3.70616C142.367 3.71413 142.376 3.72051 142.386 3.72492C142.397 3.72933 142.408 3.73168 142.419 3.73183L147.696 3.72483C147.719 3.72483 147.74 3.71622 147.756 3.7009C147.772 3.68558 147.781 3.6648 147.781 3.64314L147.79 2.15637C147.79 2.1347 147.782 2.11392 147.766 2.0986C147.75 2.08328 147.728 2.07468 147.706 2.07468L140.933 2.08635Z" fill="#89D2D2" stroke="#9DD6DB" stroke-width="0.565533"/>
<path d="M20.9183 2.23575C20.9184 2.22139 20.9141 2.20733 20.9059 2.19536C20.8977 2.18339 20.886 2.17406 20.8722 2.16855C20.8585 2.16305 20.8434 2.16161 20.8289 2.16444C20.8143 2.16726 20.801 2.17421 20.7905 2.1844L19.2614 3.62216C19.2544 3.62892 19.2489 3.63693 19.2452 3.64574C19.2415 3.65455 19.2396 3.66399 19.2397 3.67351L19.2324 24.3576C19.2324 24.3673 19.2344 24.3769 19.2383 24.3858C19.2422 24.3948 19.248 24.4029 19.2552 24.4096C19.2624 24.4164 19.2709 24.4216 19.2802 24.4251C19.2896 24.4286 19.2996 24.4303 19.3096 24.43L20.8508 24.3833C20.8702 24.3827 20.8886 24.3748 20.9021 24.3613C20.9156 24.3478 20.9232 24.3297 20.9232 24.3109L20.9183 2.23575Z" fill="#89D2D2" stroke="#9DD6DB" stroke-width="0.565533"/>
<path d="M52.7016 3.68751C52.7016 3.67494 52.699 3.66249 52.694 3.65088C52.6891 3.63927 52.6818 3.62871 52.6726 3.61982L51.2279 2.1774C51.2142 2.16414 51.1968 2.15506 51.1778 2.15128C51.1589 2.14751 51.1392 2.14921 51.1212 2.15617C51.1032 2.16313 51.0877 2.17504 51.0767 2.19043C51.0656 2.20583 51.0595 2.22402 51.0591 2.24275L51.0566 24.2596C51.0566 24.2849 51.0671 24.3093 51.0856 24.3272C51.1041 24.3452 51.1293 24.3553 51.1555 24.3553L52.6123 24.3483C52.6385 24.3483 52.6637 24.3382 52.6822 24.3202C52.7008 24.3023 52.7112 24.2779 52.7112 24.2526L52.7016 3.68751Z" fill="#89D2D2" stroke="#9DD6DB" stroke-width="0.565533"/>
<path d="M95.3521 24.4019C95.3701 24.4021 95.3878 24.3978 95.4037 24.3894C95.4195 24.3811 95.4328 24.369 95.4425 24.3543C95.4521 24.3396 95.4577 24.3227 95.4588 24.3054C95.4599 24.288 95.4564 24.2706 95.4486 24.2549L84.3297 2.19373C84.3207 2.17659 84.307 2.16223 84.29 2.15228C84.273 2.14233 84.2535 2.13719 84.2337 2.13743C84.2138 2.13767 84.1945 2.1433 84.1778 2.15366C84.161 2.16402 84.1477 2.17871 84.1392 2.19606L83.3505 3.89523C83.3444 3.90893 83.3414 3.92375 83.3418 3.93866C83.3423 3.95358 83.346 3.96823 83.3529 3.98159L93.618 24.3413C93.6265 24.3585 93.6398 24.3731 93.6564 24.3834C93.673 24.3937 93.6923 24.3993 93.712 24.3996L95.3521 24.4019Z" fill="#89D2D2" stroke="#9DD6DB" stroke-width="0.565533"/>
<path d="M100.103 22.7074C100.057 22.7074 100.013 22.6897 99.9807 22.6582C99.9481 22.6267 99.9298 22.584 99.9298 22.5394V3.93957C99.9299 3.86787 99.9154 3.7971 99.8872 3.73138C99.8591 3.66566 99.8178 3.60631 99.7658 3.55679L98.4779 2.31742C98.3155 2.16182 98.2343 2.1945 98.2343 2.41545L98.2246 22.4764C98.2246 22.5644 98.2428 22.6517 98.278 22.733C98.3132 22.8143 98.3647 22.8881 98.4296 22.9502L99.6959 24.1475C99.8318 24.2776 100.016 24.3506 100.207 24.3506L111.208 24.3576C111.224 24.358 111.24 24.3539 111.254 24.3456C111.267 24.3374 111.278 24.3254 111.285 24.3112C111.292 24.297 111.294 24.2812 111.291 24.2658C111.289 24.2504 111.282 24.236 111.271 24.2245C110.841 23.7554 109.987 22.7144 109.307 22.7168C106.209 22.7323 103.141 22.7292 100.103 22.7074Z" fill="#89D2D2" stroke="#9DD6DB" stroke-width="0.565533"/>
<path d="M136.388 22.7168C136.357 22.7168 136.329 22.7052 136.307 22.6846C136.286 22.6641 136.274 22.6361 136.274 22.6071L136.279 3.88354C136.279 3.76397 136.229 3.64896 136.142 3.56378L134.743 2.19138C134.731 2.17925 134.715 2.17088 134.698 2.16735C134.681 2.16381 134.664 2.16528 134.647 2.17156C134.631 2.17784 134.618 2.18865 134.608 2.20258C134.598 2.21651 134.593 2.23293 134.593 2.24973C134.58 8.70874 134.581 15.1802 134.595 21.6641C134.595 22.0702 134.567 22.7891 134.844 23.0272C135.241 23.3633 135.633 23.7072 136.021 24.0588C136.232 24.2502 136.593 24.3467 137.104 24.3482C140.622 24.3576 144.143 24.356 147.668 24.3436C147.768 24.342 147.818 24.293 147.818 24.1965L147.808 22.9081C147.808 22.8586 147.787 22.8111 147.751 22.7761C147.714 22.7411 147.664 22.7214 147.613 22.7214L136.388 22.7168Z" fill="#89D2D2" stroke="#9DD6DB" stroke-width="0.565533"/>
<path d="M113.553 22.0002C113.541 22.014 113.534 22.0313 113.534 22.0492L113.5 24.1429C113.499 24.1594 113.504 24.1756 113.514 24.1894C113.523 24.2031 113.537 24.2137 113.553 24.2196C113.569 24.2255 113.586 24.2264 113.603 24.2223C113.619 24.2182 113.634 24.2092 113.645 24.1965L131.339 4.33169C131.352 4.31672 131.358 4.2976 131.358 4.27801L131.326 2.23574C131.326 2.21998 131.321 2.20472 131.311 2.1919C131.302 2.17908 131.288 2.16929 131.273 2.16378C131.258 2.15827 131.241 2.15729 131.225 2.16096C131.21 2.16463 131.195 2.17279 131.184 2.18439L113.553 22.0002Z" fill="#89D2D2" stroke="#9DD6DB" stroke-width="0.565533"/>
<path d="M171.818 10.3418L179.869 2.53218C179.883 2.51978 179.891 2.50352 179.893 2.48597C179.895 2.46843 179.891 2.45061 179.882 2.43534C179.872 2.42006 179.857 2.40821 179.84 2.40165C179.822 2.3951 179.803 2.39421 179.785 2.39914C175.667 3.65485 172.953 6.26817 171.642 10.2391C171.556 10.5052 171.614 10.5394 171.818 10.3418Z" fill="#89D2D2" stroke="#9DD6DB" stroke-width="0.565533"/>
<path d="M164.799 2.55783C164.572 2.45825 164.341 2.52593 164.107 2.76089C163.693 3.17168 163.381 3.46654 163.171 3.64549C163.154 3.66023 163.141 3.67926 163.135 3.70045C163.128 3.72165 163.128 3.74417 163.134 3.76549C163.14 3.78681 163.152 3.80609 163.169 3.82117C163.186 3.83625 163.206 3.84654 163.229 3.85088C168.844 4.91053 168.065 12.4424 162.363 12.4447C159.655 12.4463 156.943 12.444 154.227 12.4377C154.142 12.4377 154.069 12.4665 154.008 12.5241L152.558 13.9245C152.465 14.0148 152.484 14.0599 152.614 14.0599C155.727 14.077 158.841 14.0809 161.958 14.0716C163.054 14.0669 163.918 13.9611 164.55 13.7541C167.657 12.7365 169.268 9.81897 168.564 6.74507C168.13 4.85295 166.875 3.45721 164.799 2.55783Z" fill="#89D2D2" stroke="#9DD6DB" stroke-width="0.565533"/>
<path d="M80.2169 14.0786C80.202 14.0789 80.1872 14.0755 80.174 14.0686C80.1609 14.0618 80.1498 14.0518 80.1417 14.0396C80.1337 14.0274 80.1291 14.0134 80.1284 13.999C80.1276 13.9846 80.1306 13.9702 80.1373 13.9572L83.321 7.67404C83.327 7.66244 83.3301 7.64965 83.3301 7.6367C83.3301 7.62374 83.327 7.61096 83.321 7.59935L82.4503 5.91652C82.443 5.90229 82.4317 5.89035 82.4177 5.88208C82.4037 5.87381 82.3876 5.86955 82.3712 5.86979C82.3547 5.87004 82.3388 5.87477 82.325 5.88346C82.3113 5.89214 82.3004 5.90442 82.2935 5.91886L73.0559 24.2876C73.0493 24.3005 73.0462 24.3149 73.047 24.3294C73.0478 24.3438 73.0524 24.3578 73.0604 24.37C73.0684 24.3822 73.0795 24.3922 73.0927 24.399C73.1058 24.4058 73.1206 24.4093 73.1355 24.409L74.8046 24.402C74.8206 24.4019 74.8364 24.3974 74.85 24.3892C74.8636 24.381 74.8746 24.3692 74.8817 24.3553L79.2159 15.7614C79.2231 15.7475 79.2341 15.7358 79.2477 15.7275C79.2613 15.7193 79.2771 15.7149 79.2931 15.7147L86.9123 15.7124C86.9271 15.7123 86.9415 15.7086 86.9544 15.7016C86.9672 15.6946 86.978 15.6846 86.9857 15.6724C86.9934 15.6603 86.9978 15.6464 86.9985 15.6322C86.9991 15.618 86.9961 15.6038 86.9895 15.591L86.2442 14.1299C86.2371 14.116 86.2261 14.1043 86.2125 14.096C86.1988 14.0878 86.1831 14.0834 86.1671 14.0833L80.2169 14.0786Z" fill="#89D2D2" stroke="#9DD6DB" stroke-width="0.565533"/>
<path d="M55.2826 6.17089C55.2683 6.15769 55.2503 6.14882 55.2309 6.14537C55.2114 6.14193 55.1914 6.14406 55.1732 6.1515C55.155 6.15894 55.1394 6.17137 55.1284 6.18726C55.1175 6.20314 55.1115 6.22179 55.1113 6.24091L55.1234 8.31352C55.1236 8.33886 55.134 8.36311 55.1523 8.38121L71.5653 24.2362C71.5796 24.2494 71.5976 24.2583 71.617 24.2617C71.6365 24.2652 71.6565 24.2631 71.6747 24.2556C71.6929 24.2482 71.7085 24.2357 71.7195 24.2199C71.7305 24.204 71.7364 24.1853 71.7366 24.1662L71.7414 22.1473C71.7412 22.1219 71.7308 22.0977 71.7125 22.0796L55.2826 6.17089Z" fill="#89D2D2" stroke="#9DD6DB" stroke-width="0.565533"/>
<path d="M44.2066 14.0272C44.217 14.0271 44.2273 14.025 44.2368 14.021C44.2463 14.017 44.2549 14.0111 44.2621 14.0038L45.7044 12.5147C45.7147 12.5042 45.7217 12.4909 45.7243 12.4766C45.727 12.4623 45.7253 12.4475 45.7194 12.4341C45.7135 12.4207 45.7037 12.4093 45.6912 12.4012C45.6786 12.3932 45.664 12.3888 45.6489 12.3887H34.4408C34.4203 12.3887 34.4007 12.3966 34.3862 12.4106C34.3718 12.4246 34.3636 12.4436 34.3636 12.4634L34.3516 13.9525C34.3516 13.9623 34.3536 13.972 34.3574 13.9811C34.3613 13.9901 34.367 13.9984 34.3742 14.0053C34.3813 14.0122 34.3898 14.0177 34.3992 14.0215C34.4086 14.0253 34.4186 14.0272 34.4287 14.0272H44.2066Z" fill="#89D2D2" stroke="#9DD6DB" stroke-width="0.565533"/>
<path d="M146.42 14.0249C146.436 14.025 146.451 14.0207 146.465 14.0124C146.478 14.004 146.488 13.9922 146.494 13.9782C146.501 13.9642 146.502 13.9488 146.499 13.9338C146.497 13.9189 146.489 13.9051 146.478 13.8941L144.968 12.412C144.961 12.4046 144.952 12.3986 144.942 12.3946C144.932 12.3906 144.921 12.3886 144.911 12.3887H137.894C137.873 12.3887 137.853 12.3968 137.838 12.4113C137.823 12.4257 137.815 12.4453 137.815 12.4657L137.793 13.9478C137.793 13.9683 137.801 13.9879 137.816 14.0023C137.831 14.0167 137.851 14.0249 137.873 14.0249H146.42Z" fill="#89D2D2" stroke="#9DD6DB" stroke-width="0.565533"/>
<path d="M12.246 24.0075C15.0221 22.8779 15.9025 19.3955 15.314 16.7651C14.8895 14.8815 13.5123 12.8439 11.4453 12.5335C11.4163 12.5291 11.3867 12.5315 11.3589 12.5405C11.3312 12.5494 11.3063 12.5646 11.2861 12.5848L9.93301 13.9129C9.92213 13.9228 9.9148 13.9357 9.91202 13.9498C9.90924 13.9639 9.91113 13.9785 9.91745 13.9918C9.92376 14.005 9.93419 14.0162 9.94733 14.0238C9.96047 14.0314 9.97567 14.0351 9.99089 14.0343C15.1114 13.7168 14.7785 22.7098 10.6638 22.7145C8.42878 22.7161 6.18249 22.7168 3.92495 22.7168C3.79972 22.7169 3.68022 22.7639 3.59211 22.8475L2.22455 24.1593C2.20809 24.1745 2.19673 24.1941 2.19197 24.2156C2.1872 24.2372 2.18924 24.2596 2.19783 24.28C2.20642 24.3004 2.22115 24.3178 2.24011 24.33C2.25908 24.3422 2.28139 24.3486 2.30415 24.3483C4.74017 24.3561 7.18343 24.3569 9.63393 24.3506C10.8206 24.3475 11.6913 24.2332 12.246 24.0075Z" fill="#89D2D2" stroke="#9DD6DB" stroke-width="0.565533"/>
<path d="M159.036 14.9188C159.021 14.9039 159 14.8955 158.979 14.8954L156.801 14.9001C156.784 14.9002 156.769 14.9048 156.755 14.9136C156.742 14.9223 156.731 14.9347 156.725 14.9491C156.719 14.9636 156.717 14.9795 156.72 14.9949C156.723 15.0103 156.731 15.0244 156.743 15.0355L166.33 24.3249C166.345 24.3398 166.366 24.3482 166.388 24.3482L168.563 24.3622C168.58 24.3627 168.596 24.3583 168.61 24.3498C168.624 24.3413 168.634 24.3289 168.641 24.3143C168.647 24.2997 168.649 24.2836 168.646 24.268C168.643 24.2524 168.635 24.2381 168.624 24.2269L159.036 14.9188Z" fill="#89D2D2" stroke="#9DD6DB" stroke-width="0.565533"/>
<path d="M151.589 15.1382C151.588 15.1212 151.583 15.1047 151.573 15.0906C151.564 15.0765 151.55 15.0656 151.533 15.0591C151.517 15.0526 151.499 15.0509 151.482 15.0542C151.465 15.0575 151.449 15.0656 151.437 15.0775L149.936 16.4802C149.928 16.4885 149.921 16.4983 149.916 16.5091C149.912 16.52 149.91 16.5316 149.91 16.5433L149.891 24.2619C149.891 24.2848 149.9 24.3067 149.917 24.3229C149.933 24.3391 149.956 24.3482 149.98 24.3482L151.487 24.3529C151.499 24.3529 151.511 24.3507 151.521 24.3463C151.532 24.342 151.542 24.3356 151.55 24.3276C151.559 24.3196 151.565 24.3101 151.57 24.2996C151.574 24.2891 151.577 24.2779 151.577 24.2665L151.589 15.1382Z" fill="#89D2D2" stroke="#9DD6DB" stroke-width="0.565533"/>
<path d="M116.993 22.6701C116.956 22.6704 116.921 22.6846 116.894 22.7098L115.435 24.0915C115.415 24.1108 115.401 24.1354 115.395 24.1623C115.39 24.1892 115.393 24.2171 115.403 24.2424C115.414 24.2678 115.433 24.2894 115.456 24.3045C115.48 24.3196 115.508 24.3275 115.536 24.3273H129.851C129.871 24.3275 129.892 24.3235 129.91 24.3154C129.929 24.3073 129.946 24.2955 129.959 24.2806L131.216 22.8895C131.234 22.8697 131.246 22.8452 131.25 22.8191C131.254 22.7929 131.25 22.7662 131.239 22.7421C131.228 22.7179 131.21 22.6975 131.187 22.683C131.164 22.6686 131.137 22.6609 131.11 22.6608L116.993 22.6701Z" fill="#89D2D2" stroke="#9DD6DB" stroke-width="0.565533"/>
<path d="M115.244 2L129.529 2.00233C129.544 2.0024 129.559 2.00657 129.571 2.01435C129.583 2.02212 129.593 2.03318 129.599 2.04621C129.606 2.05924 129.608 2.07369 129.605 2.08784C129.603 2.10199 129.597 2.11525 129.587 2.12604L128.241 3.66882C128.234 3.67714 128.225 3.68376 128.214 3.6882C128.204 3.69264 128.193 3.69479 128.181 3.6945H113.698C113.683 3.69439 113.668 3.69004 113.655 3.68197C113.643 3.6739 113.633 3.66247 113.627 3.64908C113.621 3.63569 113.62 3.62093 113.622 3.60661C113.625 3.59229 113.632 3.57903 113.642 3.56846L115.188 2.02334C115.195 2.01603 115.204 2.0102 115.214 2.00619C115.223 2.00218 115.233 2.00008 115.244 2Z" fill="#89D2D2"/>
<path d="M5.65067 4.04462C2.86009 5.48938 3.07234 11.4435 6.35012 12.286C6.96998 12.4471 7.81173 12.3724 8.54254 12.3934C8.6567 12.3981 8.676 12.4409 8.60043 12.5218C8.18075 12.9855 7.73696 13.4212 7.26905 13.8288C6.63231 14.3843 4.8475 13.5698 4.3 13.1543C3.77259 12.7513 3.29906 12.1499 2.87939 11.3501C1.72649 9.1499 1.7072 6.95281 2.8215 4.75883C3.70667 3.01532 5.10557 2.05837 7.10022 2.0607C9.83693 2.06693 12.5656 2.07393 15.2862 2.08171C15.3043 2.08138 15.322 2.08634 15.3371 2.09595C15.3521 2.10556 15.3638 2.11937 15.3706 2.13555C15.3774 2.15173 15.379 2.16952 15.3751 2.18657C15.3712 2.20363 15.3621 2.21915 15.3489 2.23109L13.8704 3.6315C13.8391 3.66184 13.8019 3.68591 13.7609 3.70233C13.7199 3.71875 13.676 3.7272 13.6317 3.72719C11.551 3.72719 9.47675 3.72875 7.40894 3.73186C6.63874 3.73342 6.05265 3.83767 5.65067 4.04462Z" fill="#89D2D2"/>
<path d="M26.5131 11.7935C25.2734 19.3441 33.3967 25.1185 40.5384 21.7621C43.1336 20.5422 44.8589 18.4969 45.7143 15.626C45.9869 14.7041 46.8624 14.0272 47.5618 13.404C47.573 13.3944 47.5869 13.388 47.6017 13.3857C47.6166 13.3833 47.6317 13.3851 47.6453 13.3908C47.6589 13.3965 47.6703 13.4059 47.6782 13.4178C47.6861 13.4297 47.6901 13.4435 47.6897 13.4577C47.68 21.3234 39.3734 26.3112 32.0026 23.5944C24.9165 20.9826 22.519 12.4354 26.9521 6.56767C28.4837 4.53941 30.857 3.03396 33.3919 2.40378C36.4164 1.65378 39.3477 2.07312 42.1857 3.66181C42.3385 3.7474 42.3674 3.86254 42.2725 4.00725L41.5803 5.0739C41.5289 5.15325 41.4629 5.16804 41.3825 5.11824C35.2949 1.47717 27.613 5.09023 26.5131 11.7935Z" fill="#89D2D2"/>
<path d="M140.933 2.08635L147.706 2.07468C147.728 2.07468 147.75 2.08328 147.766 2.0986C147.782 2.11392 147.79 2.1347 147.79 2.15637L147.781 3.64314C147.781 3.6648 147.772 3.68558 147.756 3.7009C147.74 3.71622 147.719 3.72483 147.696 3.72483L142.419 3.73183C142.408 3.73168 142.397 3.72933 142.386 3.72492C142.376 3.72051 142.367 3.71413 142.359 3.70616L140.871 2.22405C140.859 2.21237 140.852 2.1977 140.849 2.18187C140.846 2.16605 140.848 2.14978 140.855 2.13509C140.862 2.12039 140.873 2.10793 140.887 2.09927C140.9 2.0906 140.917 2.0861 140.933 2.08635Z" fill="#89D2D2"/>
<path d="M194.205 11.6559V14.8045C192.666 23.6177 181.844 27.6042 174.917 21.3794C172.611 19.3068 171.368 16.6273 171.188 13.341C171.183 13.2601 171.211 13.1909 171.27 13.1333L172.91 11.5602C172.923 11.547 172.941 11.5382 172.959 11.5352C172.978 11.5322 172.998 11.535 173.015 11.5434C173.032 11.5517 173.045 11.5651 173.054 11.5816C173.062 11.598 173.065 11.6167 173.062 11.6349C172.705 14.0459 173.134 16.3776 174.509 18.4269C178.315 24.0985 186.653 24.2176 190.778 18.868C195.365 12.9209 191.163 4.10763 183.419 3.72485C182.661 3.68751 181.903 3.70618 181.144 3.78087C181.13 3.78267 181.116 3.7801 181.103 3.77354C181.091 3.76697 181.081 3.75674 181.075 3.74432C181.069 3.73189 181.067 3.7179 181.069 3.70434C181.072 3.69079 181.079 3.67836 181.089 3.66884L182.57 2.21474C182.623 2.16294 182.687 2.12185 182.757 2.09382C182.827 2.06579 182.902 2.05136 182.977 2.05136C188.766 2.0817 193.255 6.2596 194.205 11.6559Z" fill="#89D2D2"/>
<path d="M20.9183 2.23575L20.9232 24.3109C20.9232 24.3297 20.9156 24.3478 20.9021 24.3613C20.8886 24.3748 20.8702 24.3827 20.8508 24.3833L19.3096 24.43C19.2996 24.4303 19.2896 24.4286 19.2802 24.4251C19.2709 24.4216 19.2624 24.4164 19.2552 24.4096C19.248 24.4029 19.2422 24.3948 19.2383 24.3858C19.2344 24.3769 19.2324 24.3673 19.2324 24.3576L19.2397 3.67351C19.2396 3.66399 19.2415 3.65455 19.2452 3.64574C19.2489 3.63693 19.2544 3.62892 19.2614 3.62216L20.7905 2.1844C20.801 2.17421 20.8143 2.16726 20.8289 2.16444C20.8434 2.16161 20.8585 2.16305 20.8722 2.16855C20.886 2.17406 20.8977 2.18339 20.9059 2.19536C20.9141 2.20733 20.9184 2.22139 20.9183 2.23575Z" fill="#89D2D2"/>
<path d="M52.7016 3.68751L52.7112 24.2526C52.7112 24.2779 52.7008 24.3023 52.6822 24.3202C52.6637 24.3382 52.6385 24.3483 52.6123 24.3483L51.1555 24.3553C51.1293 24.3553 51.1041 24.3452 51.0856 24.3272C51.0671 24.3093 51.0566 24.2849 51.0566 24.2596L51.0591 2.24275C51.0595 2.22402 51.0656 2.20583 51.0767 2.19043C51.0877 2.17504 51.1032 2.16313 51.1212 2.15617C51.1392 2.14921 51.1589 2.14751 51.1778 2.15128C51.1968 2.15506 51.2142 2.16414 51.2279 2.1774L52.6726 3.61982C52.6818 3.62871 52.6891 3.63927 52.694 3.65088C52.699 3.66249 52.7016 3.67494 52.7016 3.68751Z" fill="#89D2D2"/>
<path d="M95.3521 24.4019L93.712 24.3996C93.6923 24.3993 93.673 24.3937 93.6564 24.3834C93.6398 24.3731 93.6265 24.3585 93.618 24.3413L83.3529 3.98159C83.346 3.96823 83.3423 3.95358 83.3418 3.93866C83.3414 3.92375 83.3444 3.90893 83.3505 3.89523L84.1392 2.19606C84.1477 2.17871 84.161 2.16402 84.1778 2.15366C84.1945 2.1433 84.2138 2.13767 84.2337 2.13743C84.2535 2.13719 84.273 2.14233 84.29 2.15228C84.307 2.16223 84.3207 2.17659 84.3297 2.19373L95.4486 24.2549C95.4564 24.2706 95.4599 24.288 95.4588 24.3054C95.4577 24.3227 95.4521 24.3396 95.4425 24.3543C95.4328 24.369 95.4195 24.3811 95.4037 24.3894C95.3878 24.3978 95.3701 24.4021 95.3521 24.4019Z" fill="#89D2D2"/>
<path d="M100.103 22.7074C103.141 22.7292 106.209 22.7323 109.307 22.7168C109.987 22.7144 110.841 23.7554 111.271 24.2245C111.282 24.236 111.289 24.2504 111.291 24.2658C111.294 24.2812 111.292 24.297 111.285 24.3112C111.278 24.3254 111.267 24.3374 111.254 24.3456C111.24 24.3539 111.224 24.358 111.208 24.3576L100.207 24.3506C100.016 24.3506 99.8318 24.2776 99.6959 24.1475L98.4296 22.9502C98.3647 22.8881 98.3132 22.8143 98.278 22.733C98.2428 22.6517 98.2246 22.5644 98.2246 22.4764L98.2343 2.41545C98.2343 2.1945 98.3155 2.16182 98.4779 2.31742L99.7658 3.55679C99.8178 3.60631 99.8591 3.66566 99.8872 3.73138C99.9154 3.7971 99.9299 3.86787 99.9298 3.93957V22.5394C99.9298 22.584 99.9481 22.6267 99.9807 22.6582C100.013 22.6897 100.057 22.7074 100.103 22.7074Z" fill="#89D2D2"/>
<path d="M136.388 22.7168L147.613 22.7214C147.664 22.7214 147.714 22.7411 147.751 22.7761C147.787 22.8111 147.808 22.8586 147.808 22.9081L147.818 24.1965C147.818 24.293 147.768 24.342 147.668 24.3436C144.143 24.356 140.622 24.3576 137.104 24.3482C136.593 24.3467 136.232 24.2502 136.021 24.0588C135.633 23.7072 135.241 23.3633 134.844 23.0272C134.567 22.7891 134.595 22.0702 134.595 21.6641C134.581 15.1802 134.58 8.70874 134.593 2.24973C134.593 2.23293 134.598 2.21651 134.608 2.20258C134.618 2.18865 134.631 2.17784 134.647 2.17156C134.664 2.16528 134.681 2.16381 134.698 2.16735C134.715 2.17088 134.731 2.17925 134.743 2.19138L136.142 3.56378C136.229 3.64896 136.279 3.76397 136.279 3.88354L136.274 22.6071C136.274 22.6361 136.286 22.6641 136.307 22.6846C136.329 22.7052 136.357 22.7168 136.388 22.7168Z" fill="#89D2D2"/>
<path d="M113.553 22.0002L131.184 2.18439C131.195 2.17279 131.21 2.16463 131.225 2.16096C131.241 2.15729 131.258 2.15827 131.273 2.16378C131.288 2.16929 131.302 2.17908 131.311 2.1919C131.321 2.20472 131.326 2.21998 131.326 2.23574L131.358 4.27801C131.358 4.2976 131.352 4.31672 131.339 4.33169L113.645 24.1965C113.634 24.2092 113.619 24.2182 113.603 24.2223C113.586 24.2264 113.569 24.2255 113.553 24.2196C113.537 24.2137 113.523 24.2031 113.514 24.1894C113.504 24.1756 113.499 24.1594 113.5 24.1429L113.534 22.0492C113.534 22.0313 113.541 22.014 113.553 22.0002Z" fill="#89D2D2"/>
<path d="M171.642 10.2391C172.953 6.26817 175.667 3.65485 179.785 2.39914C179.803 2.39421 179.822 2.3951 179.84 2.40165C179.857 2.40821 179.872 2.42006 179.882 2.43534C179.891 2.45061 179.895 2.46843 179.893 2.48597C179.891 2.50352 179.883 2.51978 179.869 2.53218L171.818 10.3418C171.614 10.5394 171.556 10.5052 171.642 10.2391Z" fill="#89D2D2"/>
<path d="M164.799 2.55786C166.875 3.45724 168.13 4.85298 168.564 6.7451C169.268 9.819 167.657 12.7365 164.55 13.7542C163.918 13.9611 163.054 14.0669 161.958 14.0716C158.841 14.0809 155.727 14.077 152.614 14.0599C152.484 14.0599 152.465 14.0148 152.558 13.9245L154.008 12.5241C154.069 12.4666 154.142 12.4378 154.227 12.4378C156.943 12.444 159.655 12.4463 162.363 12.4448C168.065 12.4424 168.844 4.91056 163.229 3.85091C163.206 3.84657 163.186 3.83628 163.169 3.8212C163.152 3.80612 163.14 3.78684 163.134 3.76552C163.128 3.7442 163.128 3.72168 163.135 3.70048C163.141 3.67929 163.154 3.66026 163.171 3.64552C163.381 3.46658 163.693 3.17171 164.107 2.76092C164.341 2.52596 164.572 2.45828 164.799 2.55786Z" fill="#89D2D2"/>
<path d="M80.2169 14.0786L86.1671 14.0833C86.1831 14.0834 86.1988 14.0878 86.2125 14.096C86.2261 14.1043 86.2371 14.116 86.2442 14.1299L86.9895 15.591C86.9961 15.6038 86.9991 15.618 86.9985 15.6322C86.9978 15.6464 86.9934 15.6603 86.9857 15.6724C86.978 15.6846 86.9672 15.6946 86.9544 15.7016C86.9415 15.7086 86.9271 15.7123 86.9123 15.7124L79.2931 15.7147C79.2771 15.7149 79.2613 15.7193 79.2477 15.7275C79.2341 15.7358 79.2231 15.7475 79.2159 15.7614L74.8817 24.3553C74.8746 24.3692 74.8636 24.381 74.85 24.3892C74.8364 24.3974 74.8206 24.4019 74.8046 24.402L73.1355 24.409C73.1206 24.4093 73.1058 24.4058 73.0927 24.399C73.0795 24.3922 73.0684 24.3822 73.0604 24.37C73.0524 24.3578 73.0478 24.3438 73.047 24.3294C73.0462 24.3149 73.0493 24.3005 73.0559 24.2876L82.2935 5.91886C82.3004 5.90442 82.3113 5.89214 82.325 5.88346C82.3388 5.87477 82.3547 5.87004 82.3712 5.86979C82.3876 5.86955 82.4037 5.87381 82.4177 5.88208C82.4317 5.89035 82.443 5.90229 82.4503 5.91652L83.321 7.59935C83.327 7.61096 83.3301 7.62374 83.3301 7.6367C83.3301 7.64965 83.327 7.66244 83.321 7.67404L80.1373 13.9572C80.1306 13.9702 80.1276 13.9846 80.1284 13.999C80.1291 14.0134 80.1337 14.0274 80.1417 14.0396C80.1498 14.0518 80.1609 14.0618 80.174 14.0686C80.1872 14.0755 80.202 14.0789 80.2169 14.0786Z" fill="#89D2D2"/>
<path d="M55.2826 6.17089L71.7125 22.0796C71.7308 22.0977 71.7412 22.1219 71.7414 22.1473L71.7366 24.1662C71.7364 24.1853 71.7305 24.204 71.7195 24.2199C71.7085 24.2357 71.6929 24.2482 71.6747 24.2556C71.6565 24.2631 71.6365 24.2652 71.617 24.2617C71.5976 24.2583 71.5796 24.2494 71.5653 24.2362L55.1523 8.38121C55.134 8.36311 55.1236 8.33886 55.1234 8.31352L55.1113 6.24091C55.1115 6.22179 55.1175 6.20314 55.1284 6.18726C55.1394 6.17137 55.155 6.15894 55.1732 6.1515C55.1914 6.14406 55.2114 6.14193 55.2309 6.14537C55.2503 6.14882 55.2683 6.15769 55.2826 6.17089Z" fill="#89D2D2"/>
<path d="M44.2066 14.0272H34.4287C34.4186 14.0272 34.4086 14.0253 34.3992 14.0215C34.3898 14.0177 34.3813 14.0122 34.3742 14.0053C34.367 13.9984 34.3613 13.9901 34.3574 13.9811C34.3536 13.972 34.3516 13.9623 34.3516 13.9525L34.3636 12.4634C34.3636 12.4436 34.3718 12.4246 34.3862 12.4106C34.4007 12.3966 34.4203 12.3887 34.4408 12.3887H45.6489C45.664 12.3888 45.6786 12.3932 45.6912 12.4012C45.7037 12.4093 45.7135 12.4207 45.7194 12.4341C45.7253 12.4475 45.727 12.4623 45.7243 12.4766C45.7217 12.4909 45.7147 12.5042 45.7044 12.5147L44.2621 14.0038C44.2549 14.0111 44.2463 14.017 44.2368 14.021C44.2273 14.025 44.217 14.0271 44.2066 14.0272Z" fill="#89D2D2"/>
<path d="M146.42 14.0249H137.873C137.851 14.0249 137.831 14.0167 137.816 14.0023C137.801 13.9879 137.793 13.9683 137.793 13.9478L137.815 12.4657C137.815 12.4453 137.823 12.4257 137.838 12.4113C137.853 12.3968 137.873 12.3887 137.894 12.3887H144.911C144.921 12.3886 144.932 12.3906 144.942 12.3946C144.952 12.3986 144.961 12.4046 144.968 12.412L146.478 13.8941C146.489 13.9051 146.497 13.9189 146.499 13.9338C146.502 13.9488 146.501 13.9642 146.494 13.9782C146.488 13.9922 146.478 14.004 146.465 14.0124C146.451 14.0207 146.436 14.025 146.42 14.0249Z" fill="#89D2D2"/>
<path d="M15.314 16.7651C15.9025 19.3955 15.0221 22.8779 12.246 24.0075C11.6913 24.2332 10.8206 24.3475 9.63393 24.3506C7.18343 24.3569 4.74017 24.3561 2.30415 24.3483C2.28139 24.3486 2.25908 24.3422 2.24011 24.33C2.22115 24.3178 2.20642 24.3004 2.19783 24.28C2.18924 24.2596 2.1872 24.2372 2.19197 24.2156C2.19673 24.1941 2.20809 24.1745 2.22455 24.1593L3.59211 22.8475C3.68022 22.7639 3.79972 22.7169 3.92495 22.7168C6.18249 22.7168 8.42878 22.7161 10.6638 22.7145C14.7785 22.7098 15.1114 13.7168 9.99089 14.0343C9.97567 14.0351 9.96047 14.0314 9.94733 14.0238C9.93419 14.0162 9.92376 14.005 9.91745 13.9918C9.91113 13.9785 9.90924 13.9639 9.91202 13.9498C9.9148 13.9357 9.92213 13.9228 9.93301 13.9129L11.2861 12.5848C11.3063 12.5646 11.3312 12.5494 11.3589 12.5405C11.3867 12.5315 11.4163 12.5291 11.4453 12.5335C13.5123 12.8439 14.8895 14.8815 15.314 16.7651Z" fill="#89D2D2"/>
</g>
<defs>
<filter id="filter0_dddd_1575_17484" x="0.52453" y="0.524958" width="204.69" height="32.5337" filterUnits="userSpaceOnUse" color-interpolation-filters="sRGB">
<feFlood flood-opacity="0" result="BackgroundImageFix"/>
<feColorMatrix in="SourceAlpha" type="matrix" values="0 0 0 0 0 0 0 0 0 0 0 0 0 0 0 0 0 0 127 0" result="hardAlpha"/>
<feOffset/>
<feGaussianBlur stdDeviation="0.596133"/>
<feColorMatrix type="matrix" values="0 0 0 0 0 0 0 0 0 0 0 0 0 0 0 0 0 0 0.2 0"/>
<feBlend mode="normal" in2="BackgroundImageFix" result="effect1_dropShadow_1575_17484"/>
<feColorMatrix in="SourceAlpha" type="matrix" values="0 0 0 0 0 0 0 0 0 0 0 0 0 0 0 0 0 0 127 0" result="hardAlpha"/>
<feOffset dx="1.19227" dy="1.19227"/>
<feGaussianBlur stdDeviation="1.19227"/>
<feColorMatrix type="matrix" values="0 0 0 0 0 0 0 0 0 0 0 0 0 0 0 0 0 0 0.17 0"/>
<feBlend mode="normal" in2="effect1_dropShadow_1575_17484" result="effect2_dropShadow_1575_17484"/>
<feColorMatrix in="SourceAlpha" type="matrix" values="0 0 0 0 0 0 0 0 0 0 0 0 0 0 0 0 0 0 127 0" result="hardAlpha"/>
<feOffset dx="3.5768" dy="2.38453"/>
<feGaussianBlur stdDeviation="1.19227"/>
<feColorMatrix type="matrix" values="0 0 0 0 0 0 0 0 0 0 0 0 0 0 0 0 0 0 0.1 0"/>
<feBlend mode="normal" in2="effect2_dropShadow_1575_17484" result="effect3_dropShadow_1575_17484"/>
<feColorMatrix in="SourceAlpha" type="matrix" values="0 0 0 0 0 0 0 0 0 0 0 0 0 0 0 0 0 0 127 0" result="hardAlpha"/>
<feOffset dx="7.1536" dy="4.76907"/>
<feGaussianBlur stdDeviation="1.7884"/>
<feColorMatrix type="matrix" values="0 0 0 0 0 0 0 0 0 0 0 0 0 0 0 0 0 0 0.03 0"/>
<feBlend mode="normal" in2="effect3_dropShadow_1575_17484" result="effect4_dropShadow_1575_17484"/>
<feBlend mode="normal" in="SourceGraphic" in2="effect4_dropShadow_1575_17484" result="shape"/>
</filter>
</defs>
</svg>
